<?xml version="1.0" encoding="UTF-8" standalone="no"?>
<!-- Created with Inkscape (http://www.inkscape.org/) -->

<svg
   xmlns:dc="http://purl.org/dc/elements/1.1/"
   xmlns:cc="http://creativecommons.org/ns#"
   xmlns:rdf="http://www.w3.org/1999/02/22-rdf-syntax-ns#"
   xmlns:svg="http://www.w3.org/2000/svg"
   xmlns="http://www.w3.org/2000/svg"
   xmlns:xlink="http://www.w3.org/1999/xlink"
   xmlns:sodipodi="http://sodipodi.sourceforge.net/DTD/sodipodi-0.dtd"
   xmlns:inkscape="http://www.inkscape.org/namespaces/inkscape"
   width="25"
   height="25"
   viewBox="0 0 25 25.000001"
   version="1.1"
   id="svg8"
   inkscape:version="0.92.2 5c3e80d, 2017-08-06"
   sodipodi:docname="qr-acmmm-org-color.svg">
  <defs
     id="defs2">
    <linearGradient
       inkscape:collect="always"
       id="linearGradient2119">
      <stop
         style="stop-color:#de3639;stop-opacity:1"
         offset="0"
         id="stop2115" />
      <stop
         style="stop-color:#0093c1;stop-opacity:1"
         offset="1"
         id="stop2117" />
    </linearGradient>
    <linearGradient
       inkscape:collect="always"
       xlink:href="#linearGradient2119"
       id="linearGradient2121"
       x1="67.509056"
       y1="174.07466"
       x2="92.509056"
       y2="174.07466"
       gradientUnits="userSpaceOnUse"
       gradientTransform="rotate(-90,80.009056,174.07466)" />
  </defs>
  <sodipodi:namedview
     id="base"
     pagecolor="#ffffff"
     bordercolor="#666666"
     borderopacity="1.0"
     inkscape:pageopacity="0.0"
     inkscape:pageshadow="2"
     inkscape:zoom="22.4"
     inkscape:cx="12.664794"
     inkscape:cy="12.659795"
     inkscape:document-units="px"
     inkscape:current-layer="layer1"
     showgrid="false"
     units="px"
     fit-margin-top="0"
     fit-margin-left="0"
     fit-margin-right="0"
     fit-margin-bottom="0"
     inkscape:showpageshadow="false"
     inkscape:window-width="1920"
     inkscape:window-height="1016"
     inkscape:window-x="0"
     inkscape:window-y="27"
     inkscape:window-maximized="1" />
  <metadata
     id="metadata5">
    <rdf:RDF>
      <cc:Work
         rdf:about="">
        <dc:format>image/svg+xml</dc:format>
        <dc:type
           rdf:resource="http://purl.org/dc/dcmitype/StillImage" />
        <dc:title></dc:title>
      </cc:Work>
    </rdf:RDF>
  </metadata>
  <g
     inkscape:label="Layer 1"
     inkscape:groupmode="layer"
     id="layer1"
     transform="translate(-67.509056,-161.57466)">
    <path
       style="fill:url(#linearGradient2121);fill-opacity:1;fill-rule:evenodd;stroke:none;stroke-width:0.1249994"
       d="m 67.509056,186.57466 h 1.00011 0.99994 0.99993 1.00012 0.99994 0.99993 1.00011 v -1.00012 -0.99993 -0.99993 -1.00012 -0.99994 -0.99993 -1.00012 h -1.00011 -0.99993 -0.99994 -1.00012 -0.99993 -0.99994 -1.00011 v 1.00012 0.99993 0.99994 1.00012 0.99993 0.99993 z m 0,-8.00002 h 1.00011 v -0.99994 h -1.00011 z m 1.00011,-0.99994 h 0.99994 v -1.00011 h 0.99993 v -0.99994 h -0.99993 -0.99994 v 0.99994 z m 0,-2.00005 v -0.99993 -1.00012 h -1.00011 v 1.00012 0.99993 z m -1.00011,-2.99998 h 1.00011 v -0.99994 h -1.00011 z m 0,-3.99992 h 1.00011 0.99994 0.99993 1.00012 0.99994 0.99993 1.00011 v -1.00012 -0.99993 -0.99994 -1.00011 -0.99994 -0.99993 -1.00012 h -1.00011 -0.99993 -0.99994 -1.00012 -0.99993 -0.99994 -1.00011 v 1.00012 0.99993 0.99994 1.00011 0.99994 0.99993 z m 1.00011,16.99979 v -0.99993 -0.99993 -1.00012 -0.99994 -0.99993 h 0.99994 0.99993 1.00012 0.99994 0.99993 v 0.99993 0.99994 1.00012 0.99993 0.99993 h -0.99993 -0.99994 -1.00012 -0.99993 z m 0,-17.99991 v -0.99993 -0.99994 -1.00011 -0.99994 -0.99993 h 0.99994 0.99993 1.00012 0.99994 0.99993 v 0.99993 0.99994 1.00011 0.99994 0.99993 h -0.99993 -0.99994 -1.00012 -0.99993 z m 0.99994,16.99998 h 0.99993 1.00012 0.99994 v -0.99993 -1.00012 -0.99994 h -0.99994 -1.00012 -0.99993 v 0.99994 1.00012 z m 0,-9.99989 h 0.99993 1.00012 v -1.00012 -0.99993 h -1.00012 v -0.99994 h -0.99993 v 0.99994 0.99993 z m 0.99993,-2.99999 h 1.00012 v -1.00011 -0.99994 h -1.00012 v 0.99994 z m 1.00012,2.99999 v 0.99993 h 0.99994 v -0.99993 z m 0.99994,0 h 0.99993 1.00011 v -1.00012 h -1.00011 v -0.99993 h -0.99993 v 0.99993 z m 0.99993,-2.00005 h 1.00011 v 0.99993 h 0.99994 v -0.99993 h 0.99993 1.00012 v -0.99994 h 0.99994 v -1.00011 -0.99994 h -0.99994 v 0.99994 h -1.00012 v 1.00011 h -0.99993 -0.99994 -1.00011 z m 2.99998,-2.00005 v -0.99994 h -0.99993 -0.99994 -1.00011 v 0.99994 h 1.00011 0.99994 z m 0,-0.99994 h 1.00012 v -0.99993 h -1.00012 z m 0,-0.99993 v -1.00012 h -0.99993 v 1.00012 z m 0,-1.00012 h 1.00012 v 1.00012 h 0.99994 v -1.00012 h 0.99993 v -0.99993 h -0.99993 -0.99994 v -0.99994 h 0.99994 0.99993 v -1.00011 -0.99994 -0.99993 h 1.00012 v -1.00012 h -1.00012 -0.99993 -0.99994 v 1.00012 h 0.99994 v 0.99993 0.99994 h -0.99994 v -0.99994 -0.99993 h -1.00012 v 0.99993 0.99994 1.00011 0.99994 z m 0,-4.99985 v -1.00012 h -0.99993 v 1.00012 z m 4.00011,0 v 0.99993 h 0.99993 v 0.99994 1.00011 h -0.99993 v 0.99994 h 0.99993 0.99994 v 0.99993 h 1.00012 v 1.00012 0.99993 0.99994 h 0.99993 0.99994 1.00011 v 1.00011 h -1.00011 -0.99994 -0.99993 v 0.99994 0.99993 1.00012 h 0.99993 v 0.99993 0.99994 h 0.99994 v -0.99994 h 1.00011 v 0.99994 h 0.99993 0.99994 v -0.99994 h -0.99994 v -0.99993 h -0.99993 -1.00011 v -1.00012 h -0.99994 v -0.99993 h 0.99994 1.00011 v 0.99993 h 0.99993 v -0.99993 -0.99994 h 0.99994 1.00011 v 0.99994 h 0.99993 v -0.99994 -1.00011 h -0.99993 -1.00011 v -0.99994 h 1.00011 0.99993 0.99994 v -0.99993 h 1.00012 v -1.00012 h -1.00012 v -0.99993 -0.99994 h -0.99994 -0.99993 v 0.99994 h -1.00011 v -0.99994 h 1.00011 v -1.00011 h -1.00011 -0.99994 v 1.00011 h -0.99993 v -1.00011 h -1.00011 v 1.00011 h -0.99994 -0.99993 -1.00012 v -1.00011 h 1.00012 0.99993 v -0.99994 h 0.99994 v -0.99993 h -0.99994 -0.99993 v 0.99993 h -1.00012 v -0.99993 h 1.00012 v -1.00012 h -1.00012 -0.99994 v 1.00012 z m 4.99986,0 h 1.00011 v 0.99993 h 0.99993 v -0.99993 -1.00012 h -0.99993 -1.00011 z m 4.00009,1.99987 h 0.99993 0.99994 v -0.99994 -0.99993 h 1.00012 v -1.00012 h -1.00012 -0.99994 -0.99993 -1.00011 v 1.00012 0.99993 h 1.00011 z m 1.99987,0 v 1.00011 h 1.00012 v -1.00011 z m 0,5.00003 v 0.99994 h 1.00012 v -0.99994 z m -2.99998,5.99997 h 1.00011 v 0.99994 h 0.99993 v 1.00011 0.99994 h 0.99994 1.00012 v -0.99994 -1.00011 -0.99994 -0.99993 h -1.00012 v -1.00012 h -0.99994 v 1.00012 h -0.99993 v -1.00012 h -1.00011 v 1.00012 z m -1.99987,0.99994 h -1.00011 v 1.00011 h 1.00011 z m -1.00011,1.00011 h -0.99994 v -1.00011 h -0.99993 v 1.00011 h -1.00012 v 0.99994 h 1.00012 0.99993 0.99994 z m -2.99999,0.99994 h -0.99994 v 0.99993 1.00012 0.99993 h 0.99994 1.00012 v -0.99993 h -1.00012 v -1.00012 z m 1.00012,2.00005 h 0.99993 v -1.00012 h -0.99993 z m 0,0.99993 v 0.99994 h 0.99993 v -0.99994 z m -2.00006,-2.99998 v -0.99994 -1.00011 h -0.99993 -1.00012 v -0.99994 h 1.00012 v -0.99993 -1.00012 h -1.00012 -0.99993 v 1.00012 h -0.99994 v 0.99993 0.99994 h 0.99994 v 1.00011 h -0.99994 v 0.99994 h -1.00012 v 0.99993 h 1.00012 v 1.00012 h 0.99994 v -1.00012 h 0.99993 v 1.00012 h -0.99993 v 0.99993 h 0.99993 1.00012 v -0.99993 -1.00012 -0.99993 h -1.00012 v -0.99994 h 1.00012 v 0.99994 z m -3.99992,2.00005 h -1.00012 v 0.99993 h 1.00012 z m -1.00012,0.99993 h -0.99993 v 0.99994 1.00012 h 0.99993 v 0.99993 h -0.99993 v 0.99993 1.00012 h 0.99993 v -1.00012 h 1.00012 v -0.99993 h 0.99994 0.99993 1.00012 v 0.99993 h 0.99993 v -0.99993 h 0.99994 v 0.99993 h 1.00012 0.99993 v -0.99993 h -0.99993 v -0.99993 h -1.00012 -0.99994 v -1.00012 h -0.99993 v 1.00012 h -1.00012 -0.99993 -0.99994 v -1.00012 h -1.00012 z m 4.00011,3.99992 h -1.00012 v 1.00012 h 1.00012 z m -2.99999,0 v 1.00012 h 0.99994 v -1.00012 z m -1.00012,-4.99985 v -1.00012 h -0.99993 v 1.00012 z m 1.00012,-2.99999 v -1.00011 h -1.00012 v -0.99994 -0.99993 h -0.99993 -0.99994 v 0.99993 h -1.00011 -0.99993 v 0.99994 h 0.99993 1.00011 0.99994 v 1.00011 h 0.99993 z m -2.00005,0 h -0.99994 -1.00011 v 0.99994 h 1.00011 0.99994 z m -2.99998,-1.00011 h -0.99994 v 1.00011 h 0.99994 z m 3.99991,-1.99987 h 1.00012 v -1.00012 h -1.00012 z m 1.00012,-1.00012 h 0.99994 v -0.99993 h -0.99994 z m 0.99994,-0.99993 h 0.99993 1.00012 0.99993 0.99994 v -0.99994 -1.00011 h -0.99994 v -0.99994 h -0.99993 v -0.99993 -1.00012 h -1.00012 v 1.00012 0.99993 0.99994 h 1.00012 v 1.00011 h -1.00012 -0.99993 z m 2.99998,-2.99999 h 0.99994 v -0.99993 h -0.99994 z m 0,6.99991 h 0.99994 v -0.99994 h 1.00012 v -0.99993 h -1.00012 v -1.00012 h -0.99994 v 1.00012 0.99993 z m -11.99994,-9.99989 h 0.99993 1.00012 0.99994 v -0.99994 -1.00011 -0.99994 h -0.99994 -1.00012 -0.99993 v 0.99994 1.00011 z m 14.99993,2.99998 v -0.99993 -1.00012 -0.99993 h 0.99994 1.00011 0.99993 v 0.99993 1.00012 0.99993 h -0.99993 -1.00011 z m 0.99994,16.99998 h 1.00011 0.99993 0.99994 1.00011 0.99993 0.99994 1.00012 v -1.00012 -0.99993 -0.99993 -1.00012 -0.99994 -0.99993 -1.00012 h -1.00012 -0.99994 -0.99993 -1.00011 -0.99994 -0.99993 -1.00011 v 1.00012 0.99993 0.99994 1.00012 0.99993 0.99993 z m 0,-17.99991 h 1.00011 v -1.00012 h -1.00011 z m 1.00011,16.99979 v -0.99993 -0.99993 -1.00012 -0.99994 -0.99993 h 0.99993 0.99994 1.00011 0.99993 0.99994 v 0.99993 0.99994 1.00012 0.99993 0.99993 h -0.99994 -0.99993 -1.00011 -0.99994 z m 0.99993,-0.99993 h 0.99994 1.00011 0.99993 v -0.99993 -1.00012 -0.99994 h -0.99993 -1.00011 -0.99994 v 0.99994 1.00012 z m 0,-5.99997 h 0.99994 1.00011 v -0.99994 h -1.00011 -0.99994 z m 2.00005,-9.99989 v -1.00012 h 0.99993 v 1.00012 z m 1.99987,3.99992 h 1.00012 v -0.99994 h -1.00012 z"
       id="path827"
       inkscape:connector-curvature="0" />
  </g>
</svg>
